<svg width="32" height="24" viewBox="0 0 32 24" fill="none" xmlns="http://www.w3.org/2000/svg">
<path d="M26.7968 2.23929C24.7548 1.31622 22.629 0.644886 20.4192 0.28125C20.1395 0.784746 19.8318 1.4281 19.608 1.95957C17.2583 1.59594 14.8807 1.59594 12.5311 1.95957C12.2793 1.37216 11.9996 0.812719 11.6919 0.28125C9.48211 0.644886 7.32827 1.31621 5.31428 2.26726C1.28631 8.28125 0.195402 14.1274 0.726871 19.9176C3.10449 21.6799 5.73386 23.0225 8.55904 23.8617C9.2024 22.9945 9.76184 22.0994 10.2374 21.1484C9.31428 20.8127 8.44715 20.3931 7.60799 19.8896C7.83177 19.7218 8.02757 19.554 8.25135 19.3861C13.2024 21.7358 18.9646 21.7358 23.9157 19.3861C24.1395 19.554 24.3353 19.7218 24.559 19.8896C23.7199 20.3931 22.8248 20.8127 21.9017 21.1484C22.3772 22.0994 22.9367 22.9945 23.58 23.8617C26.4052 22.9945 29.0625 21.6799 31.4122 19.9176C32.0276 13.2043 30.2933 7.38615 26.7968 2.23929ZM10.9087 16.3372C9.37023 16.3372 8.13946 14.9386 8.13946 13.2323C8.13946 11.526 9.37023 10.0994 10.9087 10.0994C12.4751 10.0994 13.7059 11.498 13.7059 13.2323C13.6779 14.9386 12.4751 16.3372 10.9087 16.3372ZM21.2024 16.3372C19.6639 16.3372 18.4332 14.9386 18.4332 13.2323C18.4332 11.526 19.6639 10.0994 21.2024 10.0994C22.7688 10.0994 23.9996 11.498 23.9716 13.2323C23.9437 14.9666 22.7409 16.3372 21.2024 16.3372Z" fill="white"/>
</svg>
