<svg width="64" height="65" viewBox="0 0 64 65" fill="none" xmlns="http://www.w3.org/2000/svg">
<g clip-path="url(#clip0_71_859)">
<path d="M57.7758 47.8521C56.9176 48.298 56.0325 48.6905 55.1258 49.0271C52.2547 50.0957 49.2143 50.6377 46.1508 50.6271C34.3258 50.6271 24.0258 42.5021 24.0258 32.0521C24.0412 30.6528 24.4291 29.2828 25.1497 28.0832C25.8704 26.8837 26.8976 25.8978 28.1258 25.2271C17.4258 25.6771 14.6758 36.8271 14.6758 43.3521C14.6758 61.8521 31.7008 63.702 35.3758 63.702C37.3508 63.702 40.3258 63.1271 42.1258 62.5521L42.4508 62.452C49.3393 60.0715 55.2117 55.4159 59.1008 49.2521C59.2138 49.0648 59.2623 48.8456 59.2389 48.6281C59.2154 48.4106 59.1213 48.2068 58.9709 48.0479C58.8206 47.8891 58.6222 47.7839 58.4064 47.7485C58.1905 47.7131 57.969 47.7495 57.7758 47.8521Z" fill="url(#paint0_linear_71_859)"/>
<path opacity="0.35" d="M57.7758 47.8521C56.9176 48.298 56.0325 48.6905 55.1258 49.0271C52.2547 50.0957 49.2143 50.6377 46.1508 50.6271C34.3258 50.6271 24.0258 42.5021 24.0258 32.0521C24.0412 30.6528 24.4291 29.2828 25.1497 28.0832C25.8704 26.8837 26.8976 25.8978 28.1258 25.2271C17.4258 25.6771 14.6758 36.8271 14.6758 43.3521C14.6758 61.8521 31.7008 63.702 35.3758 63.702C37.3508 63.702 40.3258 63.1271 42.1258 62.5521L42.4508 62.452C49.3393 60.0715 55.2117 55.4159 59.1008 49.2521C59.2138 49.0648 59.2623 48.8456 59.2389 48.6281C59.2154 48.4106 59.1213 48.2068 58.9709 48.0479C58.8206 47.8891 58.6222 47.7839 58.4064 47.7485C58.1905 47.7131 57.969 47.7495 57.7758 47.8521Z" fill="url(#paint1_radial_71_859)"/>
<path d="M26.4248 60.5524C24.1995 59.1703 22.2705 57.3604 20.7498 55.2274C19.0131 52.8504 17.8177 50.1221 17.2474 47.2341C16.6771 44.346 16.7457 41.3681 17.4485 38.5094C18.1513 35.6506 19.4712 32.9803 21.3155 30.6859C23.1598 28.3914 25.484 26.5283 28.1248 25.2274C28.9248 24.8524 30.2498 24.2024 32.0248 24.2274C33.2738 24.2371 34.5037 24.5355 35.6182 25.0993C36.7328 25.6631 37.7019 26.477 38.4498 27.4774C39.4557 28.8302 40.007 30.4668 40.0248 32.1524C40.0248 32.1024 46.1498 12.2524 20.0248 12.2524C9.04976 12.2524 0.0247652 22.6524 0.0247652 31.8024C-0.0188885 36.6358 1.01446 41.4183 3.04976 45.8024C6.38294 52.9 12.2061 58.5267 19.4138 61.6144C26.6216 64.7021 34.7122 65.0359 42.1498 62.5524C39.544 63.3754 36.7907 63.6228 34.08 63.2775C31.3693 62.9322 28.7659 62.0024 26.4498 60.5524H26.4248Z" fill="url(#paint2_linear_71_859)"/>
<path opacity="0.41" d="M26.4248 60.5524C24.1995 59.1703 22.2705 57.3604 20.7498 55.2274C19.0131 52.8504 17.8177 50.1221 17.2474 47.2341C16.6771 44.346 16.7457 41.3681 17.4485 38.5094C18.1513 35.6506 19.4712 32.9803 21.3155 30.6859C23.1598 28.3914 25.484 26.5283 28.1248 25.2274C28.9248 24.8524 30.2498 24.2024 32.0248 24.2274C33.2738 24.2371 34.5037 24.5355 35.6182 25.0993C36.7328 25.6631 37.7019 26.477 38.4498 27.4774C39.4557 28.8302 40.007 30.4668 40.0248 32.1524C40.0248 32.1024 46.1498 12.2524 20.0248 12.2524C9.04976 12.2524 0.0247652 22.6524 0.0247652 31.8024C-0.0188885 36.6358 1.01446 41.4183 3.04976 45.8024C6.38294 52.9 12.2061 58.5267 19.4138 61.6144C26.6216 64.7021 34.7122 65.0359 42.1498 62.5524C39.544 63.3754 36.7907 63.6228 34.08 63.2775C31.3693 62.9322 28.7659 62.0024 26.4498 60.5524H26.4248Z" fill="url(#paint3_radial_71_859)"/>
<path d="M38.1 37.4271C37.875 37.6771 37.25 38.052 37.25 38.827C37.25 39.4771 37.675 40.127 38.45 40.6521C42.025 43.1521 48.8 42.8021 48.825 42.8021C51.4901 42.8003 54.106 42.0837 56.4 40.7271C58.7095 39.3762 60.6258 37.4451 61.9589 35.1254C63.292 32.8056 63.9957 30.1776 64 27.5021C64.075 21.9021 62 18.177 61.175 16.5271C55.85 6.17705 44.425 0.227051 32 0.227051C23.5905 0.226219 15.5186 3.5358 9.53021 9.43998C3.54181 15.3442 0.118259 23.3683 0 31.7771C0.125 22.6521 9.2 15.2771 20 15.2771C20.875 15.2771 25.875 15.352 30.5 17.7771C33.7493 19.3917 36.44 21.9431 38.225 25.1021C39.75 27.7521 40.025 31.1271 40.025 32.4771C40.025 33.827 39.35 35.802 38.075 37.452L38.1 37.4271Z" fill="url(#paint4_radial_71_859)"/>
<path d="M38.1 37.4271C37.875 37.6771 37.25 38.052 37.25 38.827C37.25 39.4771 37.675 40.127 38.45 40.6521C42.025 43.1521 48.8 42.8021 48.825 42.8021C51.4901 42.8003 54.106 42.0837 56.4 40.7271C58.7095 39.3762 60.6258 37.4451 61.9589 35.1254C63.292 32.8056 63.9957 30.1776 64 27.5021C64.075 21.9021 62 18.177 61.175 16.5271C55.85 6.17705 44.425 0.227051 32 0.227051C23.5905 0.226219 15.5186 3.5358 9.53021 9.43998C3.54181 15.3442 0.118259 23.3683 0 31.7771C0.125 22.6521 9.2 15.2771 20 15.2771C20.875 15.2771 25.875 15.352 30.5 17.7771C33.7493 19.3917 36.44 21.9431 38.225 25.1021C39.75 27.7521 40.025 31.1271 40.025 32.4771C40.025 33.827 39.35 35.802 38.075 37.452L38.1 37.4271Z" fill="url(#paint5_radial_71_859)"/>
</g>
<defs>
<linearGradient id="paint0_linear_71_859" x1="14.6758" y1="44.477" x2="59.2758" y2="44.477" gradientUnits="userSpaceOnUse">
<stop stop-color="#0C59A4"/>
<stop offset="1" stop-color="#114A8B"/>
</linearGradient>
<radialGradient id="paint1_radial_71_859" cx="0" cy="0" r="1" gradientUnits="userSpaceOnUse" gradientTransform="translate(39.3008 44.8133) scale(23.85 22.6575)">
<stop offset="0.7" stop-opacity="0"/>
<stop offset="0.9" stop-opacity="0.5"/>
<stop offset="1"/>
</radialGradient>
<linearGradient id="paint2_linear_71_859" x1="38.1748" y1="25.1274" x2="10.3498" y2="55.4524" gradientUnits="userSpaceOnUse">
<stop stop-color="#1B9DE2"/>
<stop offset="0.2" stop-color="#1595DF"/>
<stop offset="0.7" stop-color="#0680D7"/>
<stop offset="1" stop-color="#0078D4"/>
</linearGradient>
<radialGradient id="paint3_radial_71_859" cx="0" cy="0" r="1" gradientUnits="userSpaceOnUse" gradientTransform="translate(17.6385 49.9617) rotate(-81.3844) scale(35.8465 28.9604)">
<stop offset="0.8" stop-opacity="0"/>
<stop offset="0.9" stop-opacity="0.5"/>
<stop offset="1"/>
</radialGradient>
<radialGradient id="paint4_radial_71_859" cx="0" cy="0" r="1" gradientUnits="userSpaceOnUse" gradientTransform="translate(6.4725 12.0561) rotate(92.2906) scale(50.6405 107.854)">
<stop stop-color="#35C1F1"/>
<stop offset="0.1" stop-color="#34C1ED"/>
<stop offset="0.2" stop-color="#2FC2DF"/>
<stop offset="0.3" stop-color="#2BC3D2"/>
<stop offset="0.7" stop-color="#36C752"/>
</radialGradient>
<radialGradient id="paint5_radial_71_859" cx="0" cy="0" r="1" gradientUnits="userSpaceOnUse" gradientTransform="translate(60.015 19.5521) rotate(73.7398) scale(24.325 19.7811)">
<stop stop-color="#66EB6E"/>
<stop offset="1" stop-color="#66EB6E" stop-opacity="0"/>
</radialGradient>
<clipPath id="clip0_71_859">
<rect width="64" height="64" fill="white" transform="translate(0 0.227051)"/>
</clipPath>
</defs>
</svg>
