<svg width="64" height="65" viewBox="0 0 64 65" fill="none" xmlns="http://www.w3.org/2000/svg">
  <g clip-path="url(#clip0_71_827)">
    <path
      d="M31.8359 0.232761C31.8359 0.232761 50.6325 -0.612847 60.594 18.2773H30.2384C30.2384 18.2773 24.5049 18.0886 19.6185 25.0451C18.2096 27.9594 16.7057 30.9658 18.3969 36.8865C15.9537 32.7521 5.42749 14.4252 5.42749 14.4252C5.42603 14.4238 12.8522 0.984738 31.8359 0.232761Z"
      fill="#DE5447" />
    <path
      d="M59.4531 48.1937C59.4531 48.1937 50.4483 64.8923 28.2791 64.0715C31.0147 59.5143 44.05 37.7845 44.05 37.7845C44.05 37.7845 47.1975 32.9142 43.4816 25.2043C41.5925 22.527 39.6684 19.7195 33.4631 18.2243C38.4541 18.1761 60.4075 18.2273 60.4075 18.2273C60.4075 18.2273 68.6403 31.3781 59.4531 48.1937Z"
      fill="#FFCE44" />
    <path
      d="M4.1915 48.3213C4.1915 48.3213 -5.93532 32.4639 5.44675 14.3931C8.0772 18.9517 20.6194 40.6859 20.6194 40.6859C20.6194 40.6859 23.3216 45.745 31.7879 46.5028C35.0153 46.2672 38.3728 46.0668 42.655 41.6427C40.2937 45.8254 29.6827 64.1026 29.6827 64.1026C29.6827 64.1026 14.3315 64.3893 4.1915 48.3213Z"
      fill="#27A261" />
    <path
      d="M60.537 18.2284L41.8785 23.9616C41.8785 23.9616 39.0653 19.6341 33.0134 18.2252C38.2564 18.2057 60.5386 18.2284 60.5386 18.2284H60.537Z"
      fill="#FFCE44" />
    <path
      d="M29.6111 64.2274L33.8816 46.4096C33.8816 46.4096 38.5763 46.0438 42.5103 41.7251C40.0685 46.0204 29.6111 64.2274 29.6111 64.2274Z"
      fill="#20A05F" />
    <path
      d="M17.5369 32.4253C17.5369 24.5705 23.9038 18.2036 31.7586 18.2036C39.6134 18.2036 45.9803 24.5705 45.9803 32.4253C45.9803 40.2801 39.6134 46.6485 31.7586 46.6485C23.9038 46.6485 17.5369 40.2816 17.5369 32.4253Z"
      fill="white" />
    <path
      d="M19.9158 32.4259C19.9158 25.8864 25.2176 20.5845 31.7587 20.5845C38.2997 20.5845 43.6001 25.8864 43.6001 32.4259C43.6001 38.9655 38.2983 44.2674 31.7587 44.2674C25.2191 44.2674 19.9158 38.9655 19.9158 32.4259Z"
      fill="#4C8AF4" />
    <path
      d="M18.0546 36.2463C15.5836 31.967 5.42749 14.4243 5.42749 14.4243L18.4525 27.3089C18.4525 27.3089 17.1139 30.0622 17.6215 33.9947L18.0546 36.2463Z"
      fill="#DA3027" />
  </g>
  <defs>
    <clipPath id="clip0_71_827">
      <rect width="63.7601" height="64" fill="white" transform="translate(0.0407715 0.227051)" />
    </clipPath>
  </defs>
</svg>