<svg width="55" height="65" viewBox="0 0 55 65" fill="none" xmlns="http://www.w3.org/2000/svg">
  <path
    d="M53.0364 15.6143L54.4688 12.419C54.538 12.2648 54.5589 12.0933 54.5288 11.927C54.4987 11.7607 54.4191 11.6073 54.3004 11.4871L50.5036 7.642C49.6993 6.82152 48.6777 6.24746 47.5587 5.98719C46.4396 5.72692 45.2695 5.79124 44.1857 6.1726L43.1715 6.52944L37.4771 0.305103L27.7451 0.227051H27.7194L17.9874 0.305103L12.293 6.52938L11.2788 6.1726C10.195 5.79124 9.02491 5.72692 7.90585 5.98719C6.78679 6.24746 5.76519 6.82152 4.96093 7.642L1.16415 11.4871C1.04541 11.6073 0.965792 11.7607 0.93573 11.927C0.905668 12.0933 0.926569 12.2648 0.99569 12.419L2.42817 15.6143L0.464478 20.9708L1.73575 25.7994L7.52412 47.8113C8.19108 50.3484 9.72653 52.5713 11.8633 54.0932C11.8633 54.0932 18.8911 59.0504 25.8271 63.553C26.3825 63.9592 27.0449 64.1935 27.7323 64.2271C28.4196 64.1935 29.082 63.9592 29.6374 63.553C36.5733 59.0504 43.6013 54.0932 43.6013 54.0932C45.738 52.5713 47.2734 50.3484 47.9404 47.8113L53.7288 25.7994L55 20.9708L53.0364 15.6143Z"
    fill="url(#paint0_linear_71_837)" />
  <path
    d="M36.4065 43.1886L33.2291 41.5331C32.703 41.259 31.8242 40.8484 31.2762 40.6208L29.5482 39.9029C29.1797 39.7373 28.7995 39.5989 28.4108 39.4889L28.1798 39.4888L27.9488 39.4889C27.56 39.5989 27.1798 39.7373 26.8113 39.9029L25.0833 40.6208C24.5354 40.8484 23.6565 41.259 23.1304 41.5331L19.953 43.1886C19.8381 43.226 19.7369 43.2969 19.6626 43.3922C19.5884 43.4875 19.5443 43.6029 19.5362 43.7235C19.528 43.8441 19.5562 43.9644 19.617 44.0688C19.6778 44.1733 19.7685 44.2571 19.8774 44.3096L22.6343 46.2576C23.1188 46.6 23.8826 47.1974 24.3317 47.5852L25.107 48.2548C25.556 48.6426 26.2871 49.2814 26.7316 49.6744L27.467 50.3246C27.6584 50.5092 27.9139 50.6123 28.1798 50.6123C28.4456 50.6123 28.7011 50.5092 28.8925 50.3246L29.6279 49.6744C30.0724 49.2814 30.8034 48.6427 31.2525 48.2548L32.0278 47.5852C32.4768 47.1974 33.2407 46.6 33.7252 46.2576L36.4821 44.3096C36.591 44.2571 36.6817 44.1733 36.7425 44.0688C36.8033 43.9644 36.8315 43.8441 36.8233 43.7235C36.8152 43.6029 36.7712 43.4876 36.6969 43.3922C36.6226 43.2969 36.5214 43.226 36.4065 43.1886Z"
    fill="#F3F3F3" />
  <path
    d="M48.9726 20.1987C48.7177 19.7123 48.4345 19.2412 48.1247 18.7878L46.3452 16.1544C46.013 15.6629 45.4386 14.881 45.0688 14.4171L42.6685 11.4056C42.449 11.1118 42.2105 10.8326 41.9546 10.5699C41.939 10.5747 41.9223 10.5747 41.9067 10.5699C41.9033 10.5655 41.4238 10.6535 40.8412 10.7653L37.1656 11.4709C36.5829 11.5827 35.8592 11.7209 35.5573 11.7779C35.0224 11.803 34.4877 11.7253 33.9822 11.5489L31.0803 10.6081C30.5159 10.4251 29.5813 10.1657 29.0034 10.0315C28.7312 9.98827 28.4554 9.97168 28.18 9.98195C27.9045 9.97168 27.6288 9.98828 27.3565 10.0315C26.7786 10.1656 25.844 10.4251 25.2796 10.6081L22.3777 11.5489C21.8722 11.7253 21.3375 11.803 20.8027 11.7779C20.5007 11.7209 19.777 11.5827 19.1944 11.4709L15.5187 10.7653C14.9361 10.6535 14.4566 10.5655 14.4532 10.5698C14.4376 10.5746 14.4209 10.5746 14.4054 10.5698C14.1494 10.8325 13.9109 11.1117 13.6914 11.4056L11.2911 14.417C10.9214 14.881 10.347 15.6628 10.0148 16.1544L8.23532 18.7877C7.92545 19.2412 7.64233 19.7123 7.38739 20.1987C7.23343 20.7415 7.15165 21.3021 7.14417 21.8663L7.2344 22.1529C7.2774 22.3368 7.33259 22.5176 7.3996 22.6942C7.77113 23.1567 8.40793 23.8886 8.81467 24.3205L15.0987 30.9935C15.3039 31.2356 15.4415 31.5276 15.4977 31.84C15.5538 32.1524 15.5264 32.4741 15.4184 32.7726L14.3896 35.2073C14.1563 35.8531 14.1395 36.5573 14.3417 37.2135L14.5498 37.78C14.8872 38.6984 15.4656 39.5091 16.2244 40.1268L17.212 40.9309C17.47 41.1189 17.7719 41.2376 18.0889 41.2756C18.4058 41.3136 18.7272 41.2696 19.0223 41.1478L22.5296 39.476C23.1665 39.1529 23.7624 38.7545 24.3042 38.2892L27.1141 35.7537C27.226 35.6528 27.3164 35.5304 27.3801 35.3938C27.4437 35.2572 27.4792 35.1092 27.4845 34.9586C27.4898 34.808 27.4648 34.6579 27.4109 34.5172C27.357 34.3765 27.2754 34.248 27.1709 34.1394L20.833 29.8683C20.5926 29.6986 20.4213 29.4482 20.3501 29.1627C20.2789 28.8773 20.3126 28.5757 20.4451 28.313L22.9034 23.6919C23.043 23.4087 23.1254 23.1008 23.1459 22.7857C23.1664 22.4707 23.1245 22.1547 23.0228 21.8558C22.7172 21.2857 22.2238 20.8388 21.6263 20.5909L13.9219 17.6811C13.3669 17.4715 13.396 17.2542 13.9867 17.1982L18.5102 16.7696C19.22 16.7242 19.9326 16.7876 20.6233 16.9575L24.5634 18.0557C24.8442 18.1399 25.0847 18.3234 25.2402 18.572C25.3957 18.8205 25.4554 19.1171 25.4082 19.4064L23.861 27.8557C23.7571 28.3236 23.7309 28.8054 23.7835 29.2818C23.8477 29.4826 24.375 29.7481 24.9553 29.8718L27.3538 30.3833C27.8987 30.4972 28.4612 30.4972 29.006 30.3833L31.4046 29.8718C31.9848 29.7481 32.5121 29.4826 32.5764 29.2818C32.6289 28.8054 32.6028 28.3236 32.4989 27.8557L30.9517 19.4064C30.9045 19.1171 30.9642 18.8205 31.1197 18.572C31.2751 18.3234 31.5157 18.1399 31.7965 18.0557L35.7366 16.9575C36.4272 16.7876 37.1398 16.7242 37.8496 16.7696L42.3732 17.1982C42.9638 17.2542 42.993 17.4716 42.438 17.6811L34.7336 20.5909C34.1361 20.8388 33.6427 21.2857 33.3371 21.8559C33.2354 22.1547 33.1935 22.4707 33.214 22.7858C33.2345 23.1009 33.3169 23.4088 33.4565 23.692L35.9148 28.3131C36.0473 28.5758 36.0811 28.8773 36.0099 29.1628C35.9387 29.4483 35.7673 29.6986 35.5269 29.8683L29.189 34.1395C29.0845 34.2481 29.0029 34.3765 28.949 34.5172C28.8951 34.658 28.8701 34.8081 28.8754 34.9587C28.8807 35.1093 28.9162 35.2572 28.9798 35.3938C29.0435 35.5304 29.1339 35.6528 29.2458 35.7538L32.0557 38.2893C32.5975 38.7545 33.1934 39.153 33.8303 39.4761L37.3375 41.1479C37.6326 41.2696 37.954 41.3136 38.271 41.2756C38.5879 41.2377 38.8898 41.119 39.1478 40.931L40.1354 40.1269C40.8942 39.5092 41.4727 38.6985 41.8101 37.7801L42.0182 37.2135C42.2204 36.5573 42.2036 35.8531 41.9703 35.2073L40.9416 32.7725C40.8335 32.4741 40.8061 32.1524 40.8623 31.84C40.9184 31.5276 41.056 31.2356 41.2613 30.9934L47.5452 24.3205C47.952 23.8885 48.5888 23.1567 48.9603 22.6941C49.0273 22.5175 49.0825 22.3367 49.1255 22.1528L49.2158 21.8662C49.2083 21.3021 49.1265 20.7415 48.9726 20.1987Z"
    fill="#F3F3F3" />
  <path
    d="M13.9573 10.5697C13.9729 10.5745 13.9896 10.5745 14.0052 10.5697C14.0086 10.5654 14.4881 10.6534 15.0707 10.7652L18.7463 11.4707C19.329 11.5826 20.0527 11.7207 20.3546 11.7778C20.8895 11.8029 21.4242 11.7251 21.9297 11.5488L24.8316 10.6079C25.396 10.425 26.3306 10.1655 26.9085 10.0314C27.1807 9.98814 27.4565 9.97154 27.7319 9.98181C28.0074 9.97154 28.2831 9.98814 28.5553 10.0314C29.1333 10.1655 30.0679 10.425 30.6323 10.6079L33.5342 11.5488C34.0397 11.7251 34.5744 11.8029 35.1092 11.7778C35.4111 11.7207 36.1349 11.5826 36.7175 11.4707L40.3931 10.7652C40.9758 10.6534 41.4553 10.5654 41.4587 10.5697C41.4743 10.5745 41.4909 10.5745 41.5065 10.5697C46.6269 5.90021 50.5032 7.642 50.5032 7.642C49.699 6.82152 48.6774 6.24746 47.5583 5.98719C46.4393 5.72692 45.2692 5.79124 44.1854 6.1726L43.1712 6.52944L37.4768 0.305087L27.7447 0.227051H27.7191L17.987 0.305087L12.2926 6.52936L11.2784 6.1726C10.1946 5.79124 9.02455 5.72692 7.90549 5.98719C6.78644 6.24746 5.76483 6.82152 4.96057 7.642C4.96057 7.642 8.83692 5.90021 13.9573 10.5697Z"
    fill="#F15B2F" />
  <defs>
    <linearGradient id="paint0_linear_71_837" x1="0.464478" y1="32.2271" x2="55" y2="32.2271"
      gradientUnits="userSpaceOnUse">
      <stop stop-color="#F26525" />
      <stop offset="0.48" stop-color="#F26525" />
      <stop offset="0.52" stop-color="#EA5324" />
      <stop offset="1" stop-color="#EA5324" />
    </linearGradient>
  </defs>
</svg>