<svg width="153" height="37" viewBox="0 0 153 37" fill="none" xmlns="http://www.w3.org/2000/svg">
  <g clip-path="url(#clip0_12_704)">
    <path
      d="M18.324 0.5C8.38347 0.5 0.323975 8.5595 0.323975 18.5C0.323975 28.4405 8.38347 36.5 18.324 36.5C28.2645 36.5 36.324 28.4405 36.324 18.5C36.324 8.5595 28.2645 0.5 18.324 0.5ZM7.20897 18.5C7.20897 12.362 12.186 7.385 18.324 7.385C24.462 7.385 29.439 12.362 29.439 18.5H7.20897Z"
      fill="#292C33" />
    <path d="M51.759 29.3269H47.151V7.81689H59.472V11.9974H51.759V16.3624H58.86V20.5744H51.759V29.3314V29.3269Z"
      fill="#292C33" />
    <path
      d="M76.311 25.6999C75.6765 26.9509 74.7585 27.9319 73.5615 28.6519C72.3645 29.3674 70.9335 29.7274 69.273 29.7274C68.085 29.7274 67.0005 29.5339 66.015 29.1424C65.0295 28.7554 64.188 28.2064 63.4815 27.4999C62.775 26.7934 62.2215 25.9474 61.821 24.9664C61.4205 23.9854 61.2225 22.9054 61.2225 21.7399C61.2225 20.5744 61.4205 19.5304 61.821 18.5584C62.2215 17.5864 62.775 16.7404 63.4815 16.0249C64.188 15.3094 65.0205 14.7514 65.97 14.3509C66.9195 13.9504 67.9635 13.7524 69.0885 13.7524C70.2135 13.7524 71.2845 13.9504 72.2385 14.3509C73.1925 14.7514 74.007 15.3094 74.682 16.0249C75.357 16.7404 75.8835 17.5999 76.266 18.5899C76.644 19.5844 76.833 20.6734 76.833 21.8614C76.833 22.1269 76.8285 22.3519 76.8195 22.5364C76.8105 22.7209 76.7925 22.8649 76.7745 22.9684H65.619C65.6595 23.4184 65.781 23.8279 65.988 24.1969C66.1905 24.5659 66.465 24.8899 66.8025 25.1644C67.14 25.4389 67.518 25.6549 67.941 25.8079C68.3595 25.9609 68.805 26.0374 69.2775 26.0374C70.119 26.0374 70.785 25.8754 71.2755 25.5469C71.766 25.2184 72.1845 24.7684 72.5355 24.1969L76.3155 25.7044L76.311 25.6999ZM72.441 20.0434C72.3375 19.2244 71.982 18.5539 71.3655 18.0319C70.749 17.5099 69.984 17.2489 69.0615 17.2489C68.6115 17.2489 68.1885 17.3254 67.8015 17.4784C67.41 17.6314 67.0635 17.8429 66.7575 18.1084C66.4515 18.3739 66.1995 18.6709 66.006 18.9994C65.8125 19.3279 65.691 19.6744 65.6505 20.0434H72.441Z"
      fill="#292C33" />
    <path
      d="M93.3975 29.3268L90.234 20.0478L87.0705 29.3268H83.322L77.976 14.1438H82.557L85.509 23.3328L88.6455 14.1438H91.935L95.0399 23.3328L98.0505 14.1438H102.505L97.1279 29.3268H93.411H93.3975Z"
      fill="#292C33" />
    <path
      d="M103.63 21.7353C103.63 20.5878 103.828 19.5258 104.229 18.5538C104.629 17.5818 105.187 16.7358 105.903 16.0203C106.618 15.3048 107.473 14.7468 108.468 14.3463C109.462 13.9458 110.551 13.7478 111.739 13.7478C112.396 13.7478 113.053 13.8243 113.719 13.9773C114.385 14.1303 114.993 14.3733 115.546 14.6973V18.9093C114.502 18.1713 113.404 17.8023 112.257 17.8023C111.663 17.8023 111.114 17.9013 110.614 18.0948C110.11 18.2883 109.678 18.5628 109.309 18.9093C108.94 19.2558 108.652 19.6743 108.45 20.1558C108.243 20.6373 108.144 21.1638 108.144 21.7398C108.144 22.3158 108.247 22.8423 108.45 23.3238C108.652 23.8053 108.94 24.2193 109.309 24.5703C109.678 24.9168 110.115 25.1913 110.614 25.3848C111.114 25.5783 111.663 25.6773 112.257 25.6773C112.851 25.6773 113.436 25.5693 114.007 25.3533C114.579 25.1373 115.101 24.8583 115.573 24.5073V28.7463C114.957 29.0973 114.318 29.3448 113.652 29.4978C112.986 29.6508 112.324 29.7273 111.667 29.7273C110.502 29.7273 109.422 29.5338 108.441 29.1423C107.455 28.7553 106.605 28.2108 105.889 27.5133C105.174 26.8158 104.616 25.9788 104.215 24.9933C103.815 24.0078 103.617 22.9233 103.617 21.7353H103.63Z"
      fill="#292C33" />
    <path
      d="M123.205 29.3269H118.719V7.81689H123.205V16.0834C123.678 15.3454 124.285 14.7739 125.032 14.3644C125.779 13.9549 126.666 13.7479 127.692 13.7479C129.433 13.7479 130.801 14.3014 131.796 15.4084C132.79 16.5154 133.285 18.0319 133.285 19.9579V29.3314H128.799V20.9704C128.799 19.9849 128.565 19.2244 128.092 18.6799C127.62 18.1354 126.954 17.8654 126.094 17.8654C125.235 17.8654 124.51 18.1714 123.988 18.7879C123.466 19.4044 123.205 20.2324 123.205 21.2764V29.3269Z"
      fill="#292C33" />
    <path
      d="M152.676 14.1484V29.3314H148.279V27.3019C147.748 28.0804 147.046 28.6744 146.173 29.0839C145.3 29.4934 144.364 29.7004 143.361 29.7004C142.357 29.7004 141.39 29.4934 140.517 29.0839C139.644 28.6744 138.888 28.1164 138.244 27.4099C137.601 26.7034 137.092 25.8619 136.723 24.8899C136.354 23.9179 136.17 22.8649 136.17 21.7399C136.17 20.6149 136.354 19.5664 136.723 18.6034C137.092 17.6404 137.601 16.8034 138.244 16.0834C138.888 15.3679 139.648 14.8054 140.517 14.3914C141.385 13.9819 142.335 13.7749 143.361 13.7749C144.387 13.7749 145.3 13.9684 146.173 14.3599C147.042 14.7514 147.744 15.3319 148.279 16.1104V14.1439H152.676V14.1484ZM140.629 21.7399C140.629 22.2934 140.733 22.8064 140.935 23.2789C141.138 23.7514 141.417 24.1654 141.763 24.5254C142.11 24.8854 142.519 25.1644 142.992 25.3714C143.464 25.5784 143.977 25.6774 144.526 25.6774C145.075 25.6774 145.593 25.5739 146.065 25.3714C146.538 25.1689 146.947 24.8854 147.294 24.5254C147.64 24.1654 147.919 23.7514 148.122 23.2789C148.329 22.8064 148.428 22.2934 148.428 21.7399C148.428 21.1864 148.324 20.6734 148.122 20.2054C147.915 19.7329 147.64 19.3189 147.294 18.9589C146.947 18.5989 146.538 18.3199 146.065 18.1129C145.593 17.9059 145.08 17.8069 144.526 17.8069C143.973 17.8069 143.46 17.9104 142.992 18.1129C142.519 18.3199 142.11 18.5989 141.763 18.9589C141.417 19.3189 141.138 19.7329 140.935 20.2054C140.728 20.6779 140.629 21.1909 140.629 21.7399Z"
      fill="#292C33" />
  </g>
  <defs>
    <clipPath id="clip0_12_704">
      <rect width="152.352" height="36" fill="white" transform="translate(0.323975 0.5)" />
    </clipPath>
  </defs>
</svg>