<svg width="62" height="65" viewBox="0 0 62 65" fill="none" xmlns="http://www.w3.org/2000/svg">
  <g clip-path="url(#clip0_71_845)">
    <path
      d="M59.7599 21.6982C58.4122 18.4554 55.6783 14.9541 53.5375 13.8473C55.0641 16.8035 56.1237 19.9783 56.6787 23.2588L56.6843 23.3108C53.1774 14.5716 47.2328 11.0422 42.375 3.36736C42.1293 2.97921 41.8836 2.59027 41.6443 2.17971C41.5074 1.94523 41.3978 1.73395 41.3026 1.53947C41.1011 1.14937 40.9459 0.737097 40.84 0.311014C40.8401 0.291352 40.833 0.272326 40.82 0.257566C40.807 0.242805 40.7891 0.233343 40.7696 0.230984C40.7504 0.22574 40.7303 0.22574 40.7111 0.230984C40.7071 0.230984 40.7007 0.238187 40.6959 0.239787C40.6911 0.241388 40.6807 0.24859 40.6735 0.251792L40.6855 0.230984C32.8946 4.79269 30.2496 13.2359 30.0095 17.4614C26.8971 17.6748 23.9213 18.8214 21.4703 20.7515C21.2147 20.535 20.9475 20.3325 20.67 20.1449C19.9633 17.6711 19.9332 15.053 20.5828 12.5636C17.7216 13.9496 15.1793 15.9144 13.1168 18.3338H13.1024C11.8731 16.7756 11.9595 11.6377 12.03 10.5645C11.6663 10.7106 11.3192 10.8949 10.9944 11.1143C9.9092 11.8887 8.89473 12.7578 7.96285 13.7112C6.90092 14.7879 5.93103 15.9516 5.06336 17.1901V17.1949V17.1893C3.06944 20.0157 1.65504 23.209 0.901799 26.5849L0.860184 26.7897C0.801762 27.0626 0.591283 28.4296 0.555269 28.7265C0.555269 28.7497 0.550467 28.7713 0.548067 28.7945C0.276563 30.2057 0.108321 31.6348 0.0446777 33.0705V33.2306C0.0583856 40.9923 2.98145 48.4669 8.23684 54.1788C13.4922 59.8907 20.698 63.4248 28.4318 64.0835C36.1655 64.7422 43.8652 62.4776 50.0109 57.7368C56.1566 52.9959 60.3016 46.1233 61.6278 38.4757C61.6798 38.0756 61.7222 37.6794 61.7686 37.2753C62.4075 31.9948 61.7159 26.6384 59.7567 21.6934L59.7599 21.6982ZM24.0105 45.9793C24.1553 46.049 24.2914 46.1242 24.4402 46.1906L24.4618 46.2042C24.3114 46.1322 24.1609 46.0572 24.0105 45.9793ZM56.6851 23.3196V23.29L56.6907 23.3228L56.6851 23.3196Z"
      fill="url(#paint0_linear_71_845)" />
    <path
      d="M59.7574 21.6991C58.4097 18.4563 55.6758 14.955 53.535 13.8481C55.0616 16.8044 56.1212 19.9792 56.6762 23.2597V23.2893L56.6818 23.3221C59.073 30.1639 58.7271 37.6652 55.7167 44.2579C52.1617 51.8856 43.5601 59.7037 30.091 59.3196C15.5416 58.9074 2.72079 48.1074 0.327889 33.9661C-0.108275 31.7357 0.327889 30.6048 0.547171 28.7921C0.248059 30.2002 0.0811383 31.6331 0.048584 33.0722V33.2322C0.0622918 40.994 2.98535 48.4685 8.24074 54.1804C13.4961 59.8923 20.7019 63.4265 28.4357 64.0852C36.1694 64.7439 43.8691 62.4793 50.0148 57.7384C56.1605 52.9976 60.3055 46.125 61.6317 38.4774C61.6837 38.0772 61.7261 37.6811 61.7725 37.2769C62.4114 31.9965 61.7198 26.6401 59.7606 21.6951L59.7574 21.6991Z"
      fill="url(#paint1_radial_71_845)" />
    <path
      d="M59.7574 21.6991C58.4097 18.4563 55.6758 14.955 53.535 13.8481C55.0616 16.8044 56.1212 19.9792 56.6762 23.2597V23.2893L56.6818 23.3221C59.073 30.1639 58.7271 37.6652 55.7167 44.2579C52.1617 51.8856 43.5601 59.7037 30.091 59.3196C15.5416 58.9074 2.72079 48.1074 0.327889 33.9661C-0.108275 31.7357 0.327889 30.6048 0.547171 28.7921C0.248059 30.2002 0.0811383 31.6331 0.048584 33.0722V33.2322C0.0622918 40.994 2.98535 48.4685 8.24074 54.1804C13.4961 59.8923 20.7019 63.4265 28.4357 64.0852C36.1694 64.7439 43.8691 62.4793 50.0148 57.7384C56.1605 52.9976 60.3055 46.125 61.6317 38.4774C61.6837 38.0772 61.7261 37.6811 61.7725 37.2769C62.4114 31.9965 61.7198 26.6401 59.7606 21.6951L59.7574 21.6991Z"
      fill="url(#paint2_radial_71_845)" />
    <path
      d="M44.6808 25.3405C44.748 25.3877 44.8105 25.4349 44.8737 25.4821C44.0946 24.1006 43.1247 22.8357 41.9926 21.7247C32.349 12.0811 39.4661 0.820873 40.6657 0.244657L40.6777 0.227051C32.8868 4.78876 30.2418 13.2319 30.0017 17.4575C30.3634 17.4327 30.722 17.4023 31.0917 17.4023C33.8558 17.4076 36.5692 18.1448 38.9561 19.5388C41.3429 20.9328 43.3181 22.934 44.6808 25.3389V25.3405Z"
      fill="url(#paint3_radial_71_845)" />
    <path
      d="M31.1088 27.2694C31.0575 28.0409 28.3317 30.7019 27.3786 30.7019C18.5592 30.7019 17.1267 36.0375 17.1267 36.0375C17.5173 40.5303 20.648 44.2325 24.4326 46.1853C24.6055 46.2749 24.7808 46.3557 24.956 46.435C25.2596 46.5694 25.5632 46.6937 25.8668 46.8079C27.1657 47.2675 28.5261 47.53 29.9027 47.5866C45.3645 48.3117 48.3576 29.0997 37.2006 23.5216C39.8325 23.1791 42.4977 23.8263 44.6794 25.3375C43.3168 22.9326 41.3416 20.9314 38.9547 19.5374C36.5679 18.1434 33.8545 17.4062 31.0903 17.4009C30.7222 17.4009 30.3621 17.4313 30.0003 17.4561C26.8879 17.6695 23.9121 18.816 21.4611 20.7461C21.9341 21.1463 22.4679 21.6809 23.5923 22.7893C25.6971 24.8629 31.0951 27.0109 31.1072 27.263L31.1088 27.2694Z"
      fill="url(#paint4_radial_71_845)" />
    <path
      d="M31.1088 27.2694C31.0575 28.0409 28.3317 30.7019 27.3786 30.7019C18.5592 30.7019 17.1267 36.0375 17.1267 36.0375C17.5173 40.5303 20.648 44.2325 24.4326 46.1853C24.6055 46.2749 24.7808 46.3557 24.956 46.435C25.2596 46.5694 25.5632 46.6937 25.8668 46.8079C27.1657 47.2675 28.5261 47.53 29.9027 47.5866C45.3645 48.3117 48.3576 29.0997 37.2006 23.5216C39.8325 23.1791 42.4977 23.8263 44.6794 25.3375C43.3168 22.9326 41.3416 20.9314 38.9547 19.5374C36.5679 18.1434 33.8545 17.4062 31.0903 17.4009C30.7222 17.4009 30.3621 17.4313 30.0003 17.4561C26.8879 17.6695 23.9121 18.816 21.4611 20.7461C21.9341 21.1463 22.4679 21.6809 23.5923 22.7893C25.6971 24.8629 31.0951 27.0109 31.1072 27.263L31.1088 27.2694Z"
      fill="url(#paint5_radial_71_845)" />
    <path
      d="M20.0163 19.7232C20.2676 19.8832 20.4748 20.0225 20.6565 20.1481C19.9498 17.6744 19.9197 15.0563 20.5693 12.5669C17.7081 13.9529 15.1658 15.9177 13.1033 18.3371C13.2545 18.3331 17.7538 18.2522 20.0163 19.7232Z"
      fill="url(#paint6_radial_71_845)" />
    <path
      d="M0.32575 33.967C2.71945 48.1083 15.5395 58.9124 30.0889 59.3205C43.558 59.7015 52.1612 51.8826 55.7145 44.2589C58.725 37.6661 59.0708 30.1649 56.6797 23.323V23.2934C56.6797 23.2702 56.6749 23.2566 56.6797 23.2638L56.6853 23.3158C57.7857 30.5001 54.1315 37.4571 48.4182 42.1709L48.4006 42.2109C37.2684 51.2783 26.6164 47.6802 24.4636 46.2124C24.3131 46.1404 24.1627 46.0654 24.0122 45.9875C17.5226 42.8856 14.8408 36.9762 15.417 31.9023C13.8765 31.925 12.3625 31.5005 11.0584 30.6802C9.75425 29.8599 8.71601 28.679 8.06945 27.2805C9.77313 26.2369 11.7157 25.6469 13.712 25.5668C15.7083 25.4866 17.6919 25.919 19.4737 26.8228C23.1465 28.4899 27.3258 28.6542 31.1181 27.2805C31.1061 27.0284 25.7081 24.8796 23.6033 22.8068C22.4789 21.6984 21.9451 21.1646 21.4721 20.7637C21.2165 20.5472 20.9493 20.3447 20.6718 20.1571C20.4877 20.0314 20.2804 19.8954 20.0315 19.7321C17.7691 18.2611 13.2698 18.342 13.1209 18.346H13.1065C11.8773 16.7878 11.9637 11.6499 12.0341 10.5767C11.6705 10.7228 11.3233 10.9071 10.9986 11.1265C9.91337 11.9009 8.89889 12.77 7.96702 13.7234C6.90128 14.7971 5.92738 15.9581 5.05552 17.1943V17.1991V17.1935C3.0616 20.0199 1.6472 23.2132 0.893963 26.5891C0.878758 26.6523 -0.223256 31.4701 0.320148 33.9686L0.32575 33.967Z"
      fill="url(#paint7_radial_71_845)" />
    <path
      d="M41.9943 21.7238C43.1266 22.836 44.0966 24.1022 44.8754 25.4852C45.0458 25.614 45.2051 25.7421 45.3403 25.8661C52.3726 32.3486 48.688 41.512 48.4135 42.1602C54.126 37.4537 57.777 30.4919 56.6806 23.3052C53.1721 14.5579 47.221 11.0286 42.3712 3.35369C42.1255 2.96554 41.8798 2.5766 41.6406 2.16604C41.5037 1.93155 41.3941 1.72028 41.2988 1.5258C41.0974 1.1357 40.9421 0.723425 40.8363 0.297342C40.8364 0.27768 40.8293 0.258655 40.8163 0.243894C40.8033 0.229133 40.7853 0.219671 40.7658 0.217312C40.7467 0.212068 40.7265 0.212068 40.7074 0.217312C40.7034 0.217312 40.697 0.224515 40.6922 0.226115C40.6874 0.227716 40.677 0.234919 40.6698 0.23812C39.4701 0.807133 32.3547 12.0746 41.9983 21.7102L41.9943 21.7238Z"
      fill="url(#paint8_radial_71_845)" />
    <path
      d="M45.336 25.868C45.2008 25.7439 45.0415 25.6159 44.8711 25.487C44.8078 25.4398 44.7454 25.3926 44.6782 25.3454C42.4964 23.8342 39.8312 23.187 37.1994 23.5295C48.3556 29.1076 45.3624 48.3148 29.9014 47.5945C28.5248 47.5379 27.1644 47.2754 25.8655 46.8158C25.562 46.7022 25.2584 46.5779 24.9548 46.4429C24.7795 46.3628 24.6043 46.2828 24.4314 46.1932L24.453 46.2068C26.609 47.6785 37.2578 51.2743 48.39 42.2053L48.4076 42.1653C48.6853 41.517 52.3699 32.3536 45.3344 25.8712L45.336 25.868Z"
      fill="url(#paint9_radial_71_845)" />
    <path
      d="M17.1269 36.0328C17.1269 36.0328 18.5586 30.6972 27.3787 30.6972C28.3319 30.6972 31.0601 28.0362 31.1089 27.2647C27.3166 28.6383 23.1374 28.474 19.4646 26.8069C17.6827 25.9032 15.6992 25.4708 13.7028 25.5509C11.7065 25.6311 9.76398 26.221 8.0603 27.2647C8.70686 28.6631 9.7451 29.844 11.0492 30.6643C12.3533 31.4846 13.8674 31.9091 15.4079 31.8864C14.8332 36.9579 17.5142 42.8665 24.0031 45.9717C24.1479 46.0413 24.284 46.1166 24.4328 46.183C20.645 44.2262 17.5174 40.5257 17.1269 36.0352V36.0328Z"
      fill="url(#paint10_radial_71_845)" />
    <path
      d="M59.7583 21.6982C58.4106 18.4554 55.6767 14.9541 53.5359 13.8473C55.0625 16.8035 56.1221 19.9783 56.6771 23.2588L56.6827 23.3108C53.1758 14.5716 47.2312 11.0422 42.3733 3.36736C42.1277 2.97921 41.882 2.59027 41.6427 2.17971C41.5058 1.94523 41.3962 1.73395 41.3009 1.53947C41.0995 1.14937 40.9443 0.737097 40.8384 0.311014C40.8385 0.291352 40.8314 0.272326 40.8184 0.257566C40.8054 0.242805 40.7875 0.233343 40.7679 0.230984C40.7488 0.22574 40.7286 0.22574 40.7095 0.230984C40.7055 0.230984 40.6991 0.238187 40.6943 0.239787C40.6895 0.241388 40.6791 0.24859 40.6719 0.251792L40.6839 0.230984C32.893 4.79269 30.248 13.2359 30.0079 17.4614C30.3696 17.4366 30.7282 17.4062 31.0979 17.4062C33.862 17.4116 36.5754 18.1487 38.9623 19.5427C41.3491 20.9368 43.3243 22.9379 44.687 25.3428C42.5053 23.8316 39.84 23.1845 37.2082 23.5269C48.3644 29.105 45.3713 48.3122 29.9103 47.5919C28.5336 47.5354 27.1732 47.2729 25.8744 46.8133C25.5708 46.6996 25.2672 46.5753 24.9636 46.4403C24.7884 46.3603 24.6131 46.2803 24.4402 46.1906L24.4618 46.2042C24.3114 46.1322 24.1609 46.0572 24.0105 45.9793C24.1553 46.049 24.2914 46.1242 24.4402 46.1906C20.6524 44.2331 17.5248 40.5325 17.1343 36.0428C17.1343 36.0428 18.566 30.7072 27.3861 30.7072C28.3393 30.7072 31.0675 28.0462 31.1163 27.2747C31.1043 27.0226 25.7063 24.8738 23.6015 22.801C22.4771 21.6926 21.9433 21.1588 21.4703 20.7579C21.2147 20.5414 20.9475 20.3389 20.67 20.1513C19.9633 17.6775 19.9332 15.0594 20.5828 12.57C17.7216 13.956 15.1793 15.9208 13.1168 18.3402H13.1024C11.8731 16.782 11.9595 11.6441 12.03 10.5709C11.6663 10.717 11.3192 10.9013 10.9944 11.1207C9.9092 11.8952 8.89473 12.7642 7.96285 13.7176C6.90092 14.7943 5.93103 15.958 5.06336 17.1965V17.2013V17.1957C3.06944 20.0221 1.65504 23.2154 0.901799 26.5913L0.860183 26.7961C0.801762 27.069 0.540064 28.4552 0.502449 28.7529C0.26308 30.1837 0.110212 31.6277 0.0446777 33.0769V33.237C0.0583856 40.9987 2.98145 48.4733 8.23684 54.1852C13.4922 59.8971 20.698 63.4312 28.4318 64.0899C36.1655 64.7486 43.8652 62.484 50.0109 57.7432C56.1566 53.0023 60.3016 46.1297 61.6278 38.4821C61.6798 38.082 61.7222 37.6858 61.7686 37.2817C62.4075 32.0012 61.7159 26.6448 59.7567 21.6998L59.7583 21.6982ZM56.6811 23.2916L56.6867 23.3244L56.6811 23.2916Z"
      fill="url(#paint11_linear_71_845)" />
  </g>
  <defs>
    <linearGradient id="paint0_linear_71_845" x1="55.6543" y1="10.1386" x2="4.16063" y2="59.8213"
      gradientUnits="userSpaceOnUse">
      <stop offset="0.048" stop-color="#FFF44F" />
      <stop offset="0.111" stop-color="#FFE847" />
      <stop offset="0.225" stop-color="#FFC830" />
      <stop offset="0.368" stop-color="#FF980E" />
      <stop offset="0.401" stop-color="#FF8B16" />
      <stop offset="0.462" stop-color="#FF672A" />
      <stop offset="0.534" stop-color="#FF3647" />
      <stop offset="0.705" stop-color="#E31587" />
    </linearGradient>
    <radialGradient id="paint1_radial_71_845" cx="0" cy="0" r="1" gradientUnits="userSpaceOnUse"
      gradientTransform="translate(53.6591 7.42974) scale(64.6642)">
      <stop offset="0.129" stop-color="#FFBD4F" />
      <stop offset="0.186" stop-color="#FFAC31" />
      <stop offset="0.247" stop-color="#FF9D17" />
      <stop offset="0.283" stop-color="#FF980E" />
      <stop offset="0.403" stop-color="#FF563B" />
      <stop offset="0.467" stop-color="#FF3750" />
      <stop offset="0.71" stop-color="#F5156C" />
      <stop offset="0.782" stop-color="#EB0878" />
      <stop offset="0.86" stop-color="#E50080" />
    </radialGradient>
    <radialGradient id="paint2_radial_71_845" cx="0" cy="0" r="1" gradientUnits="userSpaceOnUse"
      gradientTransform="translate(29.6501 33.8396) scale(64.6642)">
      <stop offset="0.3" stop-color="#960E18" />
      <stop offset="0.351" stop-color="#B11927" stop-opacity="0.74" />
      <stop offset="0.435" stop-color="#DB293D" stop-opacity="0.343" />
      <stop offset="0.497" stop-color="#F5334B" stop-opacity="0.094" />
      <stop offset="0.53" stop-color="#FF3750" stop-opacity="0" />
    </radialGradient>
    <radialGradient id="paint3_radial_71_845" cx="0" cy="0" r="1" gradientUnits="userSpaceOnUse"
      gradientTransform="translate(37.6542 -6.97565) scale(46.8416)">
      <stop offset="0.132" stop-color="#FFF44F" />
      <stop offset="0.252" stop-color="#FFDC3E" />
      <stop offset="0.506" stop-color="#FF9D12" />
      <stop offset="0.526" stop-color="#FF980E" />
    </radialGradient>
    <radialGradient id="paint4_radial_71_845" cx="0" cy="0" r="1" gradientUnits="userSpaceOnUse"
      gradientTransform="translate(22.4495 50.6461) scale(30.7875)">
      <stop offset="0.353" stop-color="#3A8EE6" />
      <stop offset="0.472" stop-color="#5C79F0" />
      <stop offset="0.669" stop-color="#9059FF" />
      <stop offset="1" stop-color="#C139E6" />
    </radialGradient>
    <radialGradient id="paint5_radial_71_845" cx="0" cy="0" r="1" gradientUnits="userSpaceOnUse"
      gradientTransform="translate(32.7798 28.289) rotate(-13.5916) scale(16.3262 19.1139)">
      <stop offset="0.206" stop-color="#9059FF" stop-opacity="0" />
      <stop offset="0.278" stop-color="#8C4FF3" stop-opacity="0.064" />
      <stop offset="0.747" stop-color="#7716A8" stop-opacity="0.45" />
      <stop offset="0.975" stop-color="#6E008B" stop-opacity="0.6" />
    </radialGradient>
    <radialGradient id="paint6_radial_71_845" cx="0" cy="0" r="1" gradientUnits="userSpaceOnUse"
      gradientTransform="translate(28.8516 5.02967) scale(22.1523)">
      <stop stop-color="#FFE226" />
      <stop offset="0.121" stop-color="#FFDB27" />
      <stop offset="0.295" stop-color="#FFC82A" />
      <stop offset="0.502" stop-color="#FFA930" />
      <stop offset="0.732" stop-color="#FF7E37" />
      <stop offset="0.792" stop-color="#FF7139" />
    </radialGradient>
    <radialGradient id="paint7_radial_71_845" cx="0" cy="0" r="1" gradientUnits="userSpaceOnUse"
      gradientTransform="translate(46.4598 -9.37723) scale(94.5154)">
      <stop offset="0.113" stop-color="#FFF44F" />
      <stop offset="0.456" stop-color="#FF980E" />
      <stop offset="0.622" stop-color="#FF5634" />
      <stop offset="0.716" stop-color="#FF3647" />
      <stop offset="0.904" stop-color="#E31587" />
    </radialGradient>
    <radialGradient id="paint8_radial_71_845" cx="0" cy="0" r="1" gradientUnits="userSpaceOnUse"
      gradientTransform="translate(38.6042 -4.13552) rotate(83.976) scale(69.2623 45.4562)">
      <stop stop-color="#FFF44F" />
      <stop offset="0.06" stop-color="#FFE847" />
      <stop offset="0.168" stop-color="#FFC830" />
      <stop offset="0.304" stop-color="#FF980E" />
      <stop offset="0.356" stop-color="#FF8B16" />
      <stop offset="0.455" stop-color="#FF672A" />
      <stop offset="0.57" stop-color="#FF3647" />
      <stop offset="0.737" stop-color="#E31587" />
    </radialGradient>
    <radialGradient id="paint9_radial_71_845" cx="0" cy="0" r="1" gradientUnits="userSpaceOnUse"
      gradientTransform="translate(28.8499 13.0311) scale(58.9981)">
      <stop offset="0.137" stop-color="#FFF44F" />
      <stop offset="0.48" stop-color="#FF980E" />
      <stop offset="0.592" stop-color="#FF5634" />
      <stop offset="0.655" stop-color="#FF3647" />
      <stop offset="0.904" stop-color="#E31587" />
    </radialGradient>
    <radialGradient id="paint10_radial_71_845" cx="0" cy="0" r="1" gradientUnits="userSpaceOnUse"
      gradientTransform="translate(44.057 16.2333) scale(64.5762)">
      <stop offset="0.094" stop-color="#FFF44F" />
      <stop offset="0.231" stop-color="#FFE141" />
      <stop offset="0.509" stop-color="#FFAF1E" />
      <stop offset="0.626" stop-color="#FF980E" />
    </radialGradient>
    <linearGradient id="paint11_linear_71_845" x1="55.0285" y1="9.87453" x2="11.2201" y2="53.691"
      gradientUnits="userSpaceOnUse">
      <stop offset="0.167" stop-color="#FFF44F" stop-opacity="0.8" />
      <stop offset="0.266" stop-color="#FFF44F" stop-opacity="0.634" />
      <stop offset="0.489" stop-color="#FFF44F" stop-opacity="0.217" />
      <stop offset="0.6" stop-color="#FFF44F" stop-opacity="0" />
    </linearGradient>
    <clipPath id="clip0_71_845">
      <rect width="61.9592" height="64" fill="white" transform="translate(0.0407715 0.227051)" />
    </clipPath>
  </defs>
</svg>