<svg width="153" height="36" viewBox="0 0 153 36" fill="none" xmlns="http://www.w3.org/2000/svg">
<g clip-path="url(#clip0_122_6689)">
<path d="M18 0C8.0595 0 0 8.0595 0 18C0 27.9405 8.0595 36 18 36C27.9405 36 36 27.9405 36 18C36 8.0595 27.9405 0 18 0ZM6.885 18C6.885 11.862 11.862 6.885 18 6.885C24.138 6.885 29.115 11.862 29.115 18H6.885Z" fill="white"/>
<path d="M51.4349 28.827H46.8269V7.31702H59.1479V11.4975H51.4349V15.8625H58.5359V20.0745H51.4349V28.8315V28.827Z" fill="white"/>
<path d="M75.9869 25.2001C75.3524 26.4511 74.4344 27.4321 73.2374 28.1521C72.0404 28.8676 70.6094 29.2276 68.9489 29.2276C67.7609 29.2276 66.6764 29.0341 65.6909 28.6426C64.7054 28.2556 63.8639 27.7066 63.1574 27.0001C62.4509 26.2936 61.8974 25.4476 61.4969 24.4666C61.0964 23.4856 60.8984 22.4056 60.8984 21.2401C60.8984 20.0746 61.0964 19.0306 61.4969 18.0586C61.8974 17.0866 62.4509 16.2406 63.1574 15.5251C63.8639 14.8096 64.6964 14.2516 65.6459 13.8511C66.5954 13.4506 67.6394 13.2526 68.7644 13.2526C69.8894 13.2526 70.9604 13.4506 71.9144 13.8511C72.8684 14.2516 73.6829 14.8096 74.3579 15.5251C75.0329 16.2406 75.5594 17.1001 75.9419 18.0901C76.3199 19.0846 76.5089 20.1736 76.5089 21.3616C76.5089 21.6271 76.5044 21.8521 76.4954 22.0366C76.4864 22.2211 76.4684 22.3651 76.4504 22.4686H65.2949C65.3354 22.9186 65.4569 23.3281 65.6639 23.6971C65.8664 24.0661 66.1409 24.3901 66.4784 24.6646C66.8159 24.9391 67.1939 25.1551 67.6169 25.3081C68.0354 25.4611 68.4809 25.5376 68.9534 25.5376C69.7949 25.5376 70.4609 25.3756 70.9514 25.0471C71.4419 24.7186 71.8604 24.2686 72.2114 23.6971L75.9914 25.2046L75.9869 25.2001ZM72.1169 19.5436C72.0134 18.7246 71.6579 18.0541 71.0414 17.5321C70.4249 17.0101 69.6599 16.7491 68.7374 16.7491C68.2874 16.7491 67.8644 16.8256 67.4774 16.9786C67.0859 17.1316 66.7394 17.3431 66.4334 17.6086C66.1274 17.8741 65.8754 18.1711 65.6819 18.4996C65.4884 18.8281 65.3669 19.1746 65.3264 19.5436H72.1169V19.5436Z" fill="white"/>
<path d="M93.0734 28.827L89.9099 19.548L86.7464 28.827H82.9979L77.6519 13.644H82.2329L85.1849 22.833L88.3214 13.644H91.6109L94.7159 22.833L97.7264 13.644H102.181L96.8039 28.827H93.0869H93.0734Z" fill="white"/>
<path d="M103.306 21.2355C103.306 20.088 103.504 19.026 103.905 18.054C104.305 17.082 104.863 16.236 105.579 15.5205C106.294 14.805 107.149 14.247 108.144 13.8465C109.138 13.446 110.227 13.248 111.415 13.248C112.072 13.248 112.729 13.3245 113.395 13.4775C114.061 13.6305 114.669 13.8735 115.222 14.1975V18.4095C114.178 17.6715 113.08 17.3025 111.933 17.3025C111.339 17.3025 110.79 17.4015 110.29 17.595C109.786 17.7885 109.354 18.063 108.985 18.4095C108.616 18.756 108.328 19.1745 108.126 19.656C107.919 20.1375 107.82 20.664 107.82 21.24C107.82 21.816 107.923 22.3425 108.126 22.824C108.328 23.3055 108.616 23.7195 108.985 24.0705C109.354 24.417 109.791 24.6915 110.29 24.885C110.79 25.0785 111.339 25.1775 111.933 25.1775C112.527 25.1775 113.112 25.0695 113.683 24.8535C114.255 24.6375 114.777 24.3585 115.249 24.0075V28.2465C114.633 28.5975 113.994 28.845 113.328 28.998C112.662 29.151 112 29.2275 111.343 29.2275C110.178 29.2275 109.098 29.034 108.117 28.6425C107.131 28.2555 106.281 27.711 105.565 27.0135C104.85 26.316 104.292 25.479 103.891 24.4935C103.491 23.508 103.293 22.4235 103.293 21.2355H103.306Z" fill="white"/>
<path d="M122.882 28.827H118.395V7.31702H122.882V15.5835C123.354 14.8455 123.962 14.274 124.709 13.8645C125.456 13.455 126.342 13.248 127.368 13.248C129.11 13.248 130.478 13.8015 131.472 14.9085C132.467 16.0155 132.962 17.532 132.962 19.458V28.8315H128.475V20.4705C128.475 19.485 128.241 18.7245 127.769 18.18C127.296 17.6355 126.63 17.3655 125.771 17.3655C124.911 17.3655 124.187 17.6715 123.665 18.288C123.143 18.9045 122.882 19.7325 122.882 20.7765V28.827V28.827Z" fill="white"/>
<path d="M152.352 13.6485V28.8315H147.955V26.802C147.424 27.5805 146.722 28.1745 145.849 28.584C144.976 28.9935 144.04 29.2005 143.037 29.2005C142.033 29.2005 141.066 28.9935 140.193 28.584C139.32 28.1745 138.564 27.6165 137.92 26.91C137.277 26.2035 136.768 25.362 136.399 24.39C136.03 23.418 135.846 22.365 135.846 21.24C135.846 20.115 136.03 19.0665 136.399 18.1035C136.768 17.1405 137.277 16.3035 137.92 15.5835C138.564 14.868 139.324 14.3055 140.193 13.8915C141.061 13.482 142.011 13.275 143.037 13.275C144.063 13.275 144.976 13.4685 145.849 13.86C146.718 14.2515 147.42 14.832 147.955 15.6105V13.644H152.352V13.6485ZM140.305 21.24C140.305 21.7935 140.409 22.3065 140.611 22.779C140.814 23.2515 141.093 23.6655 141.439 24.0255C141.786 24.3855 142.195 24.6645 142.668 24.8715C143.14 25.0785 143.653 25.1775 144.202 25.1775C144.751 25.1775 145.269 25.074 145.741 24.8715C146.214 24.669 146.623 24.3855 146.97 24.0255C147.316 23.6655 147.595 23.2515 147.798 22.779C148.005 22.3065 148.104 21.7935 148.104 21.24C148.104 20.6865 148 20.1735 147.798 19.7055C147.591 19.233 147.316 18.819 146.97 18.459C146.623 18.099 146.214 17.82 145.741 17.613C145.269 17.406 144.756 17.307 144.202 17.307C143.649 17.307 143.136 17.4105 142.668 17.613C142.195 17.82 141.786 18.099 141.439 18.459C141.093 18.819 140.814 19.233 140.611 19.7055C140.404 20.178 140.305 20.691 140.305 21.24Z" fill="white"/>
</g>
<defs>
<clipPath id="clip0_122_6689">
<rect width="152.352" height="36" fill="white"/>
</clipPath>
</defs>
</svg>
