<svg width="28" height="25" viewBox="0 0 28 25" fill="none" xmlns="http://www.w3.org/2000/svg">
<path d="M27.6795 1.80525L23.3929 23.4171C23.3929 23.4171 22.7936 24.9152 21.1441 24.1968L11.2515 16.6126L7.65438 14.8745L1.59901 12.8367C1.59901 12.8367 0.669519 12.5065 0.579308 11.788C0.489098 11.0679 1.628 10.6781 1.628 10.6781L25.6981 1.23499C25.6981 1.23499 27.6763 0.365108 27.6763 1.80525H27.6795Z" fill="white"/>
<path d="M10.493 23.1753C10.493 23.1753 10.2047 23.1479 9.84385 22.009C9.48462 20.8701 7.65625 14.8743 7.65625 14.8743L22.1946 5.64226C22.1946 5.64226 23.0339 5.13321 23.0033 5.64226C23.0033 5.64226 23.1531 5.73247 22.7037 6.1513C22.2542 6.57014 11.2824 16.4337 11.2824 16.4337" fill="#C7DFEB"/>
<path d="M15.0462 19.5213L11.1333 23.0894C11.1333 23.0894 10.8273 23.3214 10.4922 23.1764L11.2413 16.5508" fill="#A8C9DE"/>
</svg>
